<?xml version="1.0" standalone="no"?>
<!DOCTYPE svg PUBLIC "-//W3C//DTD SVG 20010904//EN"
 "http://www.w3.org/TR/2001/REC-SVG-20010904/DTD/svg10.dtd">
<svg version="1.0" xmlns="http://www.w3.org/2000/svg"
 width="512.000000pt" height="512.000000pt" viewBox="0 0 512.000000 512.000000"
 preserveAspectRatio="xMidYMid meet">
<metadata>
Created by potrace 1.16, written by Peter Selinger 2001-2019
</metadata>
<g transform="translate(0.000000,512.000000) scale(0.100000,-0.100000)"
fill="#000000" stroke="none">
<path d="M2422 5033 c-327 -339 -498 -732 -519 -1185 -3 -76 -8 -138 -10 -138
-2 0 -35 18 -74 40 -257 146 -549 221 -858 221 -182 1 -278 -11 -453 -52 -181
-44 -202 -70 -166 -211 121 -467 407 -854 809 -1096 43 -26 78 -49 79 -52 0
-3 -28 -21 -62 -40 -78 -44 -235 -160 -315 -234 -222 -203 -409 -512 -496
-821 -56 -197 -44 -217 151 -264 179 -42 273 -53 457 -53 304 2 616 83 857
223 36 21 69 39 72 39 3 0 6 -34 6 -75 0 -427 172 -861 474 -1196 111 -124
131 -139 186 -139 55 0 75 15 186 139 302 335 474 769 474 1196 0 41 3 75 6
75 3 0 36 -18 72 -39 242 -141 552 -221 857 -223 184 0 278 11 457 53 195 47
207 67 151 264 -87 309 -274 618 -496 821 -80 74 -237 190 -315 234 -34 19
-62 37 -62 40 0 3 31 23 68 44 399 232 698 635 820 1104 36 141 15 167 -166
211 -175 41 -271 53 -453 52 -217 0 -390 -30 -596 -102 -84 -30 -263 -114
-307 -145 -11 -7 -23 -14 -27 -14 -3 0 -9 62 -12 138 -21 457 -193 848 -524
1190 l-80 82 -53 0 -54 0 -84 -87z m67 -964 c29 -24 64 -33 95 -25 13 3 34 14
47 25 l24 19 5 334 5 333 57 -80 c123 -172 217 -392 260 -608 32 -161 32 -433
0 -594 -36 -179 -114 -381 -199 -518 l-25 -41 -67 23 c-87 30 -175 30 -262 0
l-67 -23 -25 41 c-85 137 -173 367 -202 530 -36 199 -30 447 15 640 43 186
137 395 248 550 l57 80 5 -333 5 -334 24 -19z m-1374 -309 c189 -22 347 -67
512 -145 95 -44 268 -152 296 -183 8 -9 23 -48 32 -87 42 -170 121 -356 215
-510 22 -36 40 -67 40 -69 0 -2 -82 -6 -182 -9 -194 -7 -281 -19 -432 -62
l-93 -26 -63 25 c-264 107 -547 355 -710 621 -44 71 -124 234 -118 239 1 2
118 -66 258 -150 287 -172 307 -179 361 -125 33 33 40 91 15 127 -8 11 -136
92 -284 180 -149 87 -269 160 -268 162 2 1 36 6 77 11 106 12 240 12 344 1z
m3278 -6 c38 -7 38 -7 -220 -159 -142 -83 -270 -164 -285 -178 -23 -21 -28
-35 -28 -70 0 -38 5 -49 31 -71 56 -47 73 -41 359 128 143 85 260 152 260 149
0 -3 -17 -42 -38 -87 -158 -334 -446 -617 -779 -767 l-68 -30 -118 31 c-153
41 -301 60 -464 60 -73 0 -133 2 -133 5 0 2 19 35 41 72 94 153 175 353 226
553 12 46 124 128 288 210 173 86 337 135 532 160 72 9 332 5 396 -6z m-1745
-1022 c76 -34 119 -129 100 -218 -14 -64 -78 -128 -142 -142 -72 -15 -130 2
-181 53 -79 79 -79 191 0 271 62 62 139 75 223 36z m-513 -178 c16 -4 23 -19
32 -65 17 -88 49 -147 121 -217 l64 -63 -43 -74 c-67 -117 -159 -232 -271
-340 -322 -311 -766 -471 -1198 -435 -58 5 -109 9 -114 10 -5 0 107 69 250
154 281 167 302 185 290 251 -9 44 -57 85 -100 85 -24 0 -100 -40 -292 -154
-142 -84 -261 -152 -263 -150 -8 7 102 221 154 299 225 339 595 589 994 670
125 25 331 41 376 29z m1043 -4 c469 -42 880 -277 1155 -662 55 -77 186 -323
176 -331 -2 -3 -121 65 -263 149 -192 114 -268 154 -292 154 -43 0 -91 -41
-100 -85 -12 -66 9 -85 289 -250 l257 -153 -52 -8 c-93 -13 -327 -7 -433 11
-223 39 -453 131 -637 257 -176 120 -364 322 -467 503 l-43 74 64 63 c72 70
104 129 121 218 7 38 17 61 27 64 27 7 83 6 198 -4z m-584 -447 c32 -66 122
-207 174 -273 20 -25 81 -91 136 -148 l101 -102 0 -223 c-1 -191 -4 -236 -23
-324 -51 -234 -155 -460 -299 -649 l-22 -29 -1 282 c0 304 -3 324 -51 349 -35
18 -63 18 -98 0 -48 -25 -51 -45 -51 -349 l-1 -282 -22 29 c-159 209 -264 451
-309 710 -17 101 -20 152 -16 304 l4 183 95 97 c53 53 114 120 136 147 54 67
144 207 179 278 16 31 31 57 34 57 3 0 18 -26 34 -57z"/>
<path d="M2516 3785 c-42 -22 -55 -44 -56 -93 0 -61 41 -102 100 -102 114 0
141 160 33 201 -33 12 -43 11 -77 -6z"/>
</g>
</svg>
